<svg width="137" height="37" viewBox="0 0 137 37" fill="none" xmlns="http://www.w3.org/2000/svg">
<path d="M58.8576 32.4988C61.2376 32.4922 63.5358 31.6508 65.3334 30.1279L63.4311 27.1247C62.2979 28.0336 60.8813 28.7849 59.3438 28.7849C56.2273 28.7849 54.0418 26.2164 54.0418 22.3439C54.0418 18.4319 56.2678 15.8624 59.4652 15.8624C60.7199 15.8624 61.7317 16.3761 62.7841 17.284L65.0506 14.3203C63.4569 12.9062 61.3759 12.1302 59.2224 12.147C53.9198 12.1484 49.2654 15.8629 49.2654 22.3434C49.2654 28.7849 53.4342 32.4988 58.8576 32.4988ZM73.6879 32.4988C76.3996 32.4988 78.3424 31.1948 80.0827 29.1795H80.2041L80.5679 32.0246H84.3724V12.6226H79.7179V25.8988C78.2204 27.7955 77.0467 28.5858 75.3063 28.5858C73.1612 28.5858 72.2303 27.4004 72.2303 24.2006V12.6226H67.5764V24.7933C67.5764 29.6932 69.4377 32.4988 73.6879 32.4988ZM97.0984 32.4988C99.4784 32.4922 101.777 31.6508 103.574 30.1279L101.672 27.1247C100.539 28.0336 99.1221 28.7844 97.5841 28.7844C94.4676 28.7844 92.282 26.2159 92.282 22.3434C92.282 18.4314 94.5081 15.8619 97.7055 15.8619C98.9602 15.8619 99.972 16.3756 101.024 17.2835L103.291 14.3199C101.697 12.9057 99.6162 12.1297 97.4627 12.1465C92.1606 12.1465 87.5062 15.861 87.5062 22.3415C87.5062 28.7849 91.6749 32.4988 97.0984 32.4988Z" fill="white"/>
<g clip-path="url(#clip0_365_34388)">
<path d="M9.47449 36.4018C13.6585 35.9149 17.8425 35.4318 22.0266 34.9448C25.8132 35.4318 29.6038 35.9149 33.3905 36.4018C33.2775 35.1902 33.1606 33.9787 33.0437 32.7671H10.3316L9.47449 36.4018Z" fill="#4705D2"/>
<path d="M13.1715 5.54736L13.2923 6.66544H15.9687L13.1715 5.54736Z" fill="#4705D2"/>
<path d="M21.4266 0L17.4139 6.66562H25.6846L21.4266 0Z" fill="#4705D2"/>
<path d="M29.6817 5.68018L27.1689 6.6658H29.5648L29.6817 5.68018Z" fill="#4705D2"/>
<path d="M8.93291 12.8091L8.85889 12.9688H9.13159L8.93291 12.8091Z" fill="#4705D2"/>
<path d="M29.0077 18.2007L29.6154 12.9688H14.7454L15.2713 17.893L9.13162 12.9688H8.85892L7.74474 15.3179L1.14145 14.527L2.85948 21.7926L0 23.2457L11.1769 32.4903L11.1107 32.7669H33.8228L33.7605 32.0929L44.4115 23.3782L41.552 22.0575L43.27 14.6634L36.7992 15.1932L35.4941 12.9765H35.4435L29.0038 18.2085L29.0077 18.2007Z" fill="#4705D2"/>
<path d="M35.4435 12.9695H35.4947L35.479 12.9419L35.4435 12.9695Z" fill="white"/>
<path d="M29.9544 6.66553H27.5585L26.3742 7.13302L26.0742 6.66553H17.8036L17.5231 7.13302L16.3583 6.66553H13.6819L14.3558 12.9688H29.2259L29.9544 6.66553Z" fill="#4705D2"/>
<path d="M19.7553 6.9502H18.3099L19.4748 7.41379L19.7553 6.9502Z" fill="#FF40D8"/>
<path d="M29.5103 6.9502H28.026L28.3221 7.41379L29.5103 6.9502Z" fill="#FF40D8"/>
<path d="M11.0366 36.6821C15.2206 36.1951 19.4047 35.7121 23.5887 35.2251C27.3754 35.7121 31.1659 36.1951 34.9526 36.6821C34.8396 35.4705 34.7227 34.2589 34.6059 33.0474H11.8937L11.0366 36.6821Z" fill="#FF40D8"/>
<path d="M14.7336 5.82812L14.8544 6.9501H17.5308L14.7336 5.82812Z" fill="#FF40D8"/>
<path d="M22.9888 0.28418L18.9762 6.9498H27.2469L22.9888 0.28418Z" fill="#FF40D8"/>
<path d="M31.2438 5.96045L28.7311 6.94997H31.127L31.2438 5.96045Z" fill="#FF40D8"/>
<path d="M10.4952 13.0938L10.4172 13.2535H10.6938L10.4952 13.0938Z" fill="#FF40D8"/>
<path d="M30.5698 18.4815L31.1776 13.2495H16.3075L16.8334 18.1737L10.6938 13.2495H10.4211L9.30687 15.5986L2.70359 14.8078L4.42161 22.0734L1.56213 23.5265L12.739 32.7711L12.6728 33.0477H35.385L35.3226 32.3737L45.9736 23.6589L43.1141 22.3383L44.8321 14.9442L38.3613 15.474L37.0562 13.2573H37.0056L30.5659 18.4893L30.5698 18.4815Z" fill="#FF40D8"/>
<path d="M37.0056 13.2537H37.0569L37.0411 13.2261L37.0056 13.2537Z" fill="#FF40D8"/>
<path d="M31.5165 6.9502H29.1207L27.9325 7.41379L27.6364 6.9502H19.3657L19.0852 7.41379L17.9204 6.9502H15.244L15.918 13.2535H30.7841L31.5165 6.9502Z" fill="#FF40D8"/>
<path d="M10.2614 36.6821C14.4454 36.1951 18.6294 35.7121 22.8134 35.2251C26.6001 35.7121 30.3907 36.1951 34.1773 36.6821C34.0643 35.4705 33.9475 34.2589 33.8306 33.0474H11.1223L10.2652 36.6821H10.2614Z" fill="#A1DCEE"/>
<path d="M13.9624 5.82812L14.0793 6.9501H16.7595L13.9624 5.82812Z" fill="white"/>
<path d="M22.2136 0.28418L18.2048 6.9498H26.4755L22.2136 0.28418Z" fill="#A394FF"/>
<path d="M30.4686 5.96045L27.9597 6.94997H30.3556L30.4686 5.96045Z" fill="white"/>
<path d="M9.71989 13.0938L9.64587 13.2535H9.91858L9.71989 13.0938Z" fill="white"/>
<path d="M29.7947 18.4815L30.4024 13.2495H15.5324L16.0583 18.1737L9.91861 13.2495H9.64591L8.53172 15.5986L1.92844 14.8078L3.64646 22.0734L0.786987 23.5265L11.9639 32.7711L11.8976 33.0477H34.6098L34.5475 32.3737L45.1985 23.6589L42.339 22.3383L44.057 14.9442L37.5862 15.474L36.2811 13.2573H36.2305L29.7908 18.4893L29.7947 18.4815Z" fill="#7698F4"/>
<path d="M36.2343 13.2537H36.2816L36.2658 13.2261L36.2343 13.2537Z" fill="white"/>
<path d="M30.7452 6.9502H28.3493L27.1611 7.41379L26.865 6.9502H18.5943L18.3138 7.41379L17.149 6.9502H14.4688L15.1427 13.2535H30.0128L30.7452 6.9502Z" fill="#384ACE"/>
<path d="M16.2998 6.9502H11.1379V7.23458H16.2998V6.9502Z" fill="white"/>
<path d="M17.1491 32.8413H8.69531V33.0478H17.1491V32.8413Z" fill="white"/>
<path d="M19.6462 13.2534H11.6794V13.4482H19.6462V13.2534Z" fill="white"/>
</g>
<g clip-path="url(#clip1_365_34388)">
<path d="M124.881 18.6959C124.881 17.5837 124.712 16.63 124.382 15.8198H109.82C109.482 16.5583 109.289 17.3745 109.218 18.2355H114.112C114.35 16.8782 114.824 15.9484 116.997 15.9484C119.384 15.9484 119.859 17.2579 119.859 18.5883V18.9291H124.881V18.6929V18.6959Z" fill="#FF40D8"/>
<path d="M108.731 28.1372C109.479 30.1852 111.381 31.8385 114.726 31.8385C118.072 31.8385 119.28 30.6246 119.954 29.5753C119.962 30.0476 120.069 31.0342 120.215 31.405H125.133C125.056 31.0761 124.958 29.6022 124.91 28.1372H108.731Z" fill="#FF40D8"/>
<path d="M134.254 7.31104H129.108V9.62207H134.254V7.31104Z" fill="#FF40D8"/>
<path d="M124.584 18.9321H119.562V19.7334H116.908C111.459 19.7334 108.057 21.7006 108.057 25.9669C108.057 26.7024 108.179 27.4408 108.434 28.1374H115.893C114.044 28.1374 113.219 26.9954 113.219 25.641C113.219 23.8352 114.37 22.8815 117.469 22.8815H119.565V23.3748C119.565 25.8473 119.161 28.1374 115.893 28.1374H124.611C124.593 27.5933 124.581 27.0492 124.581 26.5678V18.9321H124.584Z" fill="#FF40D8"/>
<path d="M133.958 18.9321H128.811V28.1374H133.958V18.9321Z" fill="#FF40D8"/>
<path d="M133.958 5H128.811V7.31104H133.958V5Z" fill="#FF40D8"/>
<path d="M116.303 12.2469C112.112 12.223 109.906 13.6999 108.933 15.8196H123.495C122.5 13.383 120.043 12.2708 116.303 12.2469Z" fill="#FF40D8"/>
<path d="M133.364 12.6807H128.217V15.8199H133.364V12.6807Z" fill="#FF40D8"/>
<path d="M134.254 28.1372H129.108V31.405H134.254V28.1372Z" fill="#FF40D8"/>
<path d="M134.254 15.8198H129.108V18.9321H134.254V15.8198Z" fill="#FF40D8"/>
<path d="M122.821 18.857C122.821 17.7449 122.652 16.7912 122.322 15.981H107.76C107.422 16.7194 107.229 17.5356 107.158 18.3966H112.052C112.29 17.0393 112.765 16.1095 114.937 16.1095C117.324 16.1095 117.799 17.419 117.799 18.7494V19.0902H122.821V18.8541V18.857Z" fill="#4705D2"/>
<path d="M106.674 28.2988C107.422 30.3468 109.324 32.0001 112.67 32.0001C116.015 32.0001 117.223 30.7863 117.897 29.7369C117.906 30.2092 118.012 31.1958 118.158 31.5666H123.076C122.999 31.2377 122.901 29.7638 122.854 28.2988H106.674Z" fill="#4705D2"/>
<path d="M132.197 7.47266H127.051V9.7837H132.197V7.47266Z" fill="#4705D2"/>
<path d="M122.524 19.0933H117.502V19.8945H114.848C109.399 19.8945 105.997 21.8617 105.997 26.128C105.997 26.8635 106.119 27.602 106.374 28.2986H113.833C111.984 28.2986 111.159 27.1565 111.159 25.8022C111.159 23.9964 112.31 23.0427 115.409 23.0427H117.505V23.536C117.505 26.0084 117.101 28.2986 113.833 28.2986H122.551C122.533 27.7544 122.521 27.2103 122.521 26.729V19.0933H122.524Z" fill="#4705D2"/>
<path d="M131.901 19.0933H126.754V28.2986H131.901V19.0933Z" fill="#4705D2"/>
<path d="M131.901 5.16162H126.754V7.47266H131.901V5.16162Z" fill="#4705D2"/>
<path d="M114.243 12.4085C110.052 12.3846 107.846 13.8615 106.873 15.9812H121.435C120.44 13.5446 117.983 12.4324 114.243 12.4085Z" fill="#4705D2"/>
<path d="M131.307 12.8418H126.16V15.981H131.307V12.8418Z" fill="#4705D2"/>
<path d="M132.197 28.2988H127.051V31.5666H132.197V28.2988Z" fill="#4705D2"/>
<path d="M132.197 15.981H127.051V19.0932H132.197V15.981Z" fill="#4705D2"/>
<path d="M123.99 18.7379C123.99 17.6257 123.821 16.672 123.492 15.8618H108.93C108.591 16.6003 108.398 17.4165 108.327 18.2775H113.222C113.459 16.9202 113.934 15.9904 116.107 15.9904C118.493 15.9904 118.968 17.2999 118.968 18.6303V18.9711H123.99V18.7349V18.7379Z" fill="#4705D2"/>
<path d="M107.84 28.1821C108.588 30.2301 110.491 31.8834 113.836 31.8834C117.181 31.8834 118.389 30.6696 119.063 29.6202C119.072 30.0925 119.179 31.0792 119.324 31.4499H124.243C124.165 31.121 124.068 29.6471 124.02 28.1821H107.84Z" fill="#98A2FF"/>
<path d="M133.364 7.35303H128.217V9.66407H133.364V7.35303Z" fill="#ABB9FF"/>
<path d="M123.694 18.9736H118.671V19.7749H116.018C110.568 19.7749 107.167 21.7421 107.167 26.0084C107.167 26.7439 107.288 27.4823 107.543 28.1789H115.003C113.153 28.1789 112.328 27.0369 112.328 25.6825C112.328 23.8767 113.48 22.923 116.579 22.923H118.674V23.4163C118.674 25.8888 118.271 28.1789 115.003 28.1789H123.72C123.702 27.6348 123.691 27.0907 123.691 26.6093V18.9736H123.694Z" fill="#C4D4FF"/>
<path d="M133.067 18.9736H127.92V28.1789H133.067V18.9736Z" fill="#72A7FF"/>
<path d="M133.067 5.04199H127.92V7.35303H133.067V5.04199Z" fill="#A394FF"/>
<path d="M115.412 12.2889C111.221 12.2649 109.016 13.7419 108.042 15.8616H122.604C121.61 13.4249 119.152 12.3128 115.412 12.2889Z" fill="#6396FF"/>
<path d="M132.473 12.7256H127.327V15.8648H132.473V12.7256Z" fill="#1B00FF"/>
<path d="M133.364 28.1821H128.217V31.4499H133.364V28.1821Z" fill="#455CD4"/>
<path d="M133.364 15.8618H128.217V18.9741H133.364V15.8618Z" fill="#ABB9FF"/>
<path d="M110.007 15.7539H106.074V15.9722H110.007V15.7539Z" fill="white"/>
<path d="M125.658 18.7168H121.726V18.935H125.658V18.7168Z" fill="white"/>
<path d="M126.579 28.1909H122.646V28.4092H126.579V28.1909Z" fill="white"/>
<path d="M136.222 15.8618H132.289V16.0801H136.222V15.8618Z" fill="white"/>
<path d="M129.627 7.31104H125.694V7.52928H129.627V7.31104Z" fill="white"/>
<path d="M129.627 15.6465H125.694V15.8647H129.627V15.6465Z" fill="white"/>
<path d="M137.003 18.8242H133.07V19.0425H137.003V18.8242Z" fill="white"/>
<path d="M135.035 28.0298H131.102V28.248H135.035V28.0298Z" fill="white"/>
</g>
<defs>
<clipPath id="clip0_365_34388">
<rect width="45.9737" height="36.6823" fill="white"/>
</clipPath>
<clipPath id="clip1_365_34388">
<rect width="31" height="27" fill="white" transform="translate(106 5)"/>
</clipPath>
</defs>
</svg>
